<?xml version="1.0" encoding="UTF-8"?>
<svg width="170px" height="56px" viewBox="0 0 170 56" version="1.1" xmlns="http://www.w3.org/2000/svg" xmlns:xlink="http://www.w3.org/1999/xlink">
    <!-- Generator: Sketch 50.2 (55047) - http://www.bohemiancoding.com/sketch -->
    <title>powered_by_graphcms.a67588e3</title>
    <desc>Created with Sketch.</desc>
    <defs>
        <radialGradient cx="0%" cy="100%" fx="0%" fy="100%" r="141.421447%" gradientTransform="translate(0.000000,1.000000),scale(0.329412,1.000000),rotate(-18.232479),translate(-0.000000,-1.000000)" id="radialGradient-1">
            <stop stop-color="#61045F" offset="0%"></stop>
            <stop stop-color="#282D4C" offset="100%"></stop>
        </radialGradient>
        <radialGradient cx="0%" cy="400%" fx="0%" fy="400%" r="141.421356%" gradientTransform="translate(0.000000,4.000000),scale(1.000000,0.947368),translate(-0.000000,-4.000000)" id="radialGradient-2">
            <stop stop-color="#61045F" offset="0%"></stop>
            <stop stop-color="#282D4C" offset="100%"></stop>
        </radialGradient>
        <radialGradient cx="0%" cy="400%" fx="0%" fy="400%" r="141.421356%" gradientTransform="translate(0.000000,4.000000),scale(1.000000,0.959803),translate(-0.000000,-4.000000)" id="radialGradient-3">
            <stop stop-color="#61045F" offset="0%"></stop>
            <stop stop-color="#282D4C" offset="100%"></stop>
        </radialGradient>
        <path d="M0.41005845,12.5981735 C0.41005845,10.8929971 1.32858435,9.31679856 2.8208699,8.46119967 L15.7109347,1.07070724 C17.2098838,0.211287857 19.05937,0.209767035 20.5597637,1.06672017 L25.2245028,3.73099597 C25.2979043,3.77291941 25.358874,3.83316813 25.4013064,3.90570878 C25.535065,4.13437673 25.4559513,4.42692427 25.224601,4.55913203 L8.41647044,14.1643299 C8.26690442,14.2498011 8.17479077,14.407608 8.17479077,14.5783698 L8.17479077,18.5427028 C8.17479077,18.6270252 8.15223547,18.7098488 8.10941119,18.7827778 C7.97526615,19.0112245 7.67915511,19.0889318 7.44802873,18.9563421 L4.44525135,17.2337458 C4.37146694,17.191418 4.28767181,17.1691242 4.20236027,17.1691242 C3.93512569,17.1691242 3.71848931,17.3832489 3.71848931,17.6473851 L3.71848931,27.8416632 C3.71848931,28.0127202 3.81091902,28.1707531 3.96089298,28.2561161 L7.93238705,30.5166319 C8.08236106,30.6019948 8.17479077,30.7600277 8.17479077,30.9310848 L8.17479077,33.7238067 C8.17479077,33.8081916 8.15220208,33.8910741 8.10931776,33.9640407 C7.97508387,34.1924364 7.67894265,34.2700313 7.44786784,34.1373537 L2.81824848,31.4791385 C1.32744155,30.6231533 0.41005845,29.0477751 0.41005845,27.3436688 L0.41005845,12.5981735 Z M10.3665499,35.5405217 L10.3665499,15.8377692 C10.3665499,15.6666748 10.4590197,15.5086133 10.6090454,15.4232641 L17.8820874,11.2856492 C18.0321553,11.2002759 18.2169389,11.2006676 18.3666349,11.2866763 L25.6420745,15.4668183 C25.7910875,15.5524345 25.8827734,15.7099347 25.8827734,15.8802963 L25.8827734,35.5422231 C25.8827734,35.7130719 25.7905666,35.8709456 25.6408803,35.956385 L23.3192743,37.2815335 C23.0878559,37.4136247 22.791917,37.3352793 22.6582763,37.106544 C22.6157921,37.0338292 22.5934255,36.9513404 22.5934255,36.8673716 L22.5934255,27.1616108 C22.5934255,26.8974746 22.376789,26.6833499 22.1095545,26.6833499 C22.0240453,26.6833499 21.9400633,26.7057471 21.8661597,26.7482608 L18.378174,28.7547585 C18.2274047,28.8414901 18.0410743,28.8412936 17.8904925,28.7542442 L14.4249042,26.7508326 C14.1942268,26.617481 13.897855,26.694211 13.7629392,26.9222138 C13.7195923,26.9954685 13.6967465,27.0788043 13.6967465,27.1636682 L13.6967465,36.8724458 C13.6967465,37.1365819 13.4801101,37.3507067 13.2128755,37.3507067 C13.128796,37.3507067 13.0461675,37.3290517 12.9731338,37.2878761 L10.6106791,35.955952 C10.459734,35.8708509 10.3665499,35.7122813 10.3665499,35.5405217 Z M35.851381,12.3413373 L35.851381,14.598601 C35.851381,14.7682292 35.7604763,14.9251661 35.6124767,15.0110428 L31.6544298,17.3076982 C31.5064302,17.393575 31.4155255,17.5505119 31.4155255,17.72014 L31.4155255,20.3785307 C31.4155255,20.642667 31.6321619,20.8567916 31.8993964,20.8567916 C31.9842273,20.8567916 32.0675675,20.8347482 32.1410606,20.7928715 L35.1258459,19.0921302 C35.3573642,18.9602101 35.6532437,19.0387746 35.7867111,19.2676086 C35.829079,19.3402497 35.851381,19.4226236 35.851381,19.5064709 L35.851381,27.3389246 C35.851381,29.0443572 34.9325814,30.6207522 33.4399417,31.4762583 L28.8383876,34.1136383 C28.6072086,34.2461384 28.3111285,34.1683163 28.177074,33.9398177 C28.134311,33.8669271 28.1117896,33.7841637 28.1117896,33.6999049 L28.1117896,31.0087896 C28.1117896,30.837956 28.2039801,30.680094 28.3536453,30.594649 L32.298866,28.3422939 C32.4485312,28.2568489 32.5407217,28.098987 32.5407217,27.9281534 L32.5407217,25.2264575 C32.5407217,24.9623213 32.3240853,24.7481967 32.0568507,24.7481967 C31.9716572,24.7481967 31.8879739,24.7704288 31.8142608,24.8126456 L28.8382504,26.5170577 C28.6070276,26.649483 28.3109732,26.571565 28.1769945,26.343023 C28.1342826,26.2701646 28.1117896,26.1874514 28.1117896,26.1032457 L28.1117896,14.6085473 C28.1117896,14.4380841 28.0199952,14.2805059 27.8708418,14.1949264 L21.0257844,10.2674446 C20.7946683,10.1348374 20.7160721,9.84215353 20.8502348,9.61371706 C20.892543,9.54167973 20.9531523,9.481813 21.0260627,9.44004327 L27.8692646,5.51963753 C28.0192708,5.43370042 28.2043314,5.4336612 28.3543748,5.51953476 L33.6353092,8.54194344 C35.0068874,9.32693137 35.851381,10.7747924 35.851381,12.3413373 Z" id="path-4"></path>
        <path d="M0.41005845,12.5981735 C0.41005845,10.8929971 1.32858435,9.31679856 2.8208699,8.46119967 L15.7109347,1.07070724 C17.2098838,0.211287857 19.05937,0.209767035 20.5597637,1.06672017 L25.2245028,3.73099597 C25.2979043,3.77291941 25.358874,3.83316813 25.4013064,3.90570878 C25.535065,4.13437673 25.4559513,4.42692427 25.224601,4.55913203 L8.41647044,14.1643299 C8.26690442,14.2498011 8.17479077,14.407608 8.17479077,14.5783698 L8.17479077,18.5427028 C8.17479077,18.6270252 8.15223547,18.7098488 8.10941119,18.7827778 C7.97526615,19.0112245 7.67915511,19.0889318 7.44802873,18.9563421 L4.44525135,17.2337458 C4.37146694,17.191418 4.28767181,17.1691242 4.20236027,17.1691242 C3.93512569,17.1691242 3.71848931,17.3832489 3.71848931,17.6473851 L3.71848931,27.8416632 C3.71848931,28.0127202 3.81091902,28.1707531 3.96089298,28.2561161 L7.93238705,30.5166319 C8.08236106,30.6019948 8.17479077,30.7600277 8.17479077,30.9310848 L8.17479077,33.7238067 C8.17479077,33.8081916 8.15220208,33.8910741 8.10931776,33.9640407 C7.97508387,34.1924364 7.67894265,34.2700313 7.44786784,34.1373537 L2.81824848,31.4791385 C1.32744155,30.6231533 0.41005845,29.0477751 0.41005845,27.3436688 L0.41005845,12.5981735 Z M10.3665499,35.5405217 L10.3665499,15.8377692 C10.3665499,15.6666748 10.4590197,15.5086133 10.6090454,15.4232641 L17.8820874,11.2856492 C18.0321553,11.2002759 18.2169389,11.2006676 18.3666349,11.2866763 L25.6420745,15.4668183 C25.7910875,15.5524345 25.8827734,15.7099347 25.8827734,15.8802963 L25.8827734,35.5422231 C25.8827734,35.7130719 25.7905666,35.8709456 25.6408803,35.956385 L23.3192743,37.2815335 C23.0878559,37.4136247 22.791917,37.3352793 22.6582763,37.106544 C22.6157921,37.0338292 22.5934255,36.9513404 22.5934255,36.8673716 L22.5934255,27.1616108 C22.5934255,26.8974746 22.376789,26.6833499 22.1095545,26.6833499 C22.0240453,26.6833499 21.9400633,26.7057471 21.8661597,26.7482608 L18.378174,28.7547585 C18.2274047,28.8414901 18.0410743,28.8412936 17.8904925,28.7542442 L14.4249042,26.7508326 C14.1942268,26.617481 13.897855,26.694211 13.7629392,26.9222138 C13.7195923,26.9954685 13.6967465,27.0788043 13.6967465,27.1636682 L13.6967465,36.8724458 C13.6967465,37.1365819 13.4801101,37.3507067 13.2128755,37.3507067 C13.128796,37.3507067 13.0461675,37.3290517 12.9731338,37.2878761 L10.6106791,35.955952 C10.459734,35.8708509 10.3665499,35.7122813 10.3665499,35.5405217 Z M35.851381,12.3413373 L35.851381,14.598601 C35.851381,14.7682292 35.7604763,14.9251661 35.6124767,15.0110428 L31.6544298,17.3076982 C31.5064302,17.393575 31.4155255,17.5505119 31.4155255,17.72014 L31.4155255,20.3785307 C31.4155255,20.642667 31.6321619,20.8567916 31.8993964,20.8567916 C31.9842273,20.8567916 32.0675675,20.8347482 32.1410606,20.7928715 L35.1258459,19.0921302 C35.3573642,18.9602101 35.6532437,19.0387746 35.7867111,19.2676086 C35.829079,19.3402497 35.851381,19.4226236 35.851381,19.5064709 L35.851381,27.3389246 C35.851381,29.0443572 34.9325814,30.6207522 33.4399417,31.4762583 L28.8383876,34.1136383 C28.6072086,34.2461384 28.3111285,34.1683163 28.177074,33.9398177 C28.134311,33.8669271 28.1117896,33.7841637 28.1117896,33.6999049 L28.1117896,31.0087896 C28.1117896,30.837956 28.2039801,30.680094 28.3536453,30.594649 L32.298866,28.3422939 C32.4485312,28.2568489 32.5407217,28.098987 32.5407217,27.9281534 L32.5407217,25.2264575 C32.5407217,24.9623213 32.3240853,24.7481967 32.0568507,24.7481967 C31.9716572,24.7481967 31.8879739,24.7704288 31.8142608,24.8126456 L28.8382504,26.5170577 C28.6070276,26.649483 28.3109732,26.571565 28.1769945,26.343023 C28.1342826,26.2701646 28.1117896,26.1874514 28.1117896,26.1032457 L28.1117896,14.6085473 C28.1117896,14.4380841 28.0199952,14.2805059 27.8708418,14.1949264 L21.0257844,10.2674446 C20.7946683,10.1348374 20.7160721,9.84215353 20.8502348,9.61371706 C20.892543,9.54167973 20.9531523,9.481813 21.0260627,9.44004327 L27.8692646,5.51963753 C28.0192708,5.43370042 28.2043314,5.4336612 28.3543748,5.51953476 L33.6353092,8.54194344 C35.0068874,9.32693137 35.851381,10.7747924 35.851381,12.3413373 Z" id="path-6"></path>
        <path d="M2.75,7.22070312 L3.24804688,7.22070312 C3.71354399,7.22070312 4.0618478,7.12874441 4.29296875,6.94482422 C4.5240897,6.76090403 4.63964844,6.49316582 4.63964844,6.14160156 C4.63964844,5.78678208 4.54280696,5.52474043 4.34912109,5.35546875 C4.15543523,5.18619707 3.85189009,5.1015625 3.43847656,5.1015625 L2.75,5.1015625 L2.75,7.22070312 Z M6.16796875,6.08789062 C6.16796875,6.85612363 5.92789954,7.44368286 5.44775391,7.85058594 C4.96760828,8.25748901 4.28483516,8.4609375 3.39941406,8.4609375 L2.75,8.4609375 L2.75,11 L1.23632812,11 L1.23632812,3.86132812 L3.51660156,3.86132812 C4.38249131,3.86132812 5.04085061,4.04768694 5.49169922,4.42041016 C5.94254783,4.79313337 6.16796875,5.34895464 6.16796875,6.08789062 Z M13.9951172,7.42089844 C13.9951172,8.60254497 13.7021514,9.51073901 13.1162109,10.1455078 C12.5302705,10.7802766 11.6904352,11.0976562 10.5966797,11.0976562 C9.50292422,11.0976562 8.66308887,10.7802766 8.07714844,10.1455078 C7.49120801,9.51073901 7.19824219,8.59928979 7.19824219,7.41113281 C7.19824219,6.22297583 7.4920218,5.31559558 8.07958984,4.68896484 C8.66715789,4.06233411 9.50943462,3.74902344 10.6064453,3.74902344 C11.703456,3.74902344 12.5424776,4.06477549 13.1235352,4.69628906 C13.7045927,5.32780264 13.9951172,6.23599668 13.9951172,7.42089844 Z M8.78515625,7.42089844 C8.78515625,8.21842847 8.93652192,8.8190084 9.23925781,9.22265625 C9.5419937,9.6263041 9.99446313,9.828125 10.5966797,9.828125 C11.804368,9.828125 12.4082031,9.02572417 12.4082031,7.42089844 C12.4082031,5.81281748 11.8076232,5.00878906 10.6064453,5.00878906 C10.0042288,5.00878906 9.55013174,5.21142375 9.24414062,5.61669922 C8.93814951,6.02197468 8.78515625,6.62336841 8.78515625,7.42089844 Z M22.3300781,11 L20.6064453,11 L19.6396484,7.25 C19.603841,7.11653579 19.5428064,6.84065964 19.456543,6.42236328 C19.3702795,6.00406692 19.3206381,5.72330801 19.3076172,5.58007812 C19.2880858,5.75586025 19.2392582,6.03824675 19.1611328,6.42724609 C19.0830074,6.81624543 19.0227867,7.09374917 18.9804688,7.25976562 L18.0185547,11 L16.2998047,11 L14.4785156,3.86132812 L15.9677734,3.86132812 L16.8808594,7.7578125 C17.0403654,8.47721714 17.1559241,9.1005833 17.2275391,9.62792969 C17.2470704,9.44238188 17.2918291,9.15511262 17.3618164,8.76611328 C17.4318037,8.37711394 17.497721,8.07519639 17.5595703,7.86035156 L18.5996094,3.86132812 L20.0302734,3.86132812 L21.0703125,7.86035156 C21.1158856,8.03938892 21.1728512,8.31282368 21.2412109,8.68066406 C21.3095707,9.04850444 21.3616535,9.36425649 21.3974609,9.62792969 C21.4300132,9.37402217 21.482096,9.05745632 21.5537109,8.67822266 C21.6253259,8.29898899 21.6904294,7.99218867 21.7490234,7.7578125 L22.6572266,3.86132812 L24.1464844,3.86132812 L22.3300781,11 Z M29.15625,11 L25.0449219,11 L25.0449219,3.86132812 L29.15625,3.86132812 L29.15625,5.1015625 L26.5585938,5.1015625 L26.5585938,6.66894531 L28.9755859,6.66894531 L28.9755859,7.90917969 L26.5585938,7.90917969 L26.5585938,9.75 L29.15625,9.75 L29.15625,11 Z M32.1591797,7.03027344 L32.6474609,7.03027344 C33.125979,7.03027344 33.4791655,6.95052163 33.7070312,6.79101562 C33.934897,6.63150962 34.0488281,6.38086108 34.0488281,6.0390625 C34.0488281,5.70051914 33.9324556,5.45963613 33.699707,5.31640625 C33.4669585,5.17317637 33.1064478,5.1015625 32.6181641,5.1015625 L32.1591797,5.1015625 L32.1591797,7.03027344 Z M32.1591797,8.26074219 L32.1591797,11 L30.6455078,11 L30.6455078,3.86132812 L32.7255859,3.86132812 C33.6956429,3.86132812 34.4134091,4.03792141 34.8789062,4.39111328 C35.3444034,4.74430515 35.5771484,5.28059536 35.5771484,6 C35.5771484,6.41992397 35.4615897,6.7934554 35.2304688,7.12060547 C34.9993478,7.44775554 34.6722026,7.70410063 34.2490234,7.88964844 C35.3232476,9.49447417 36.0231104,10.5312477 36.3486328,11 L34.6689453,11 L32.9648438,8.26074219 L32.1591797,8.26074219 Z M41.3583984,11 L37.2470703,11 L37.2470703,3.86132812 L41.3583984,3.86132812 L41.3583984,5.1015625 L38.7607422,5.1015625 L38.7607422,6.66894531 L41.1777344,6.66894531 L41.1777344,7.90917969 L38.7607422,7.90917969 L38.7607422,9.75 L41.3583984,9.75 L41.3583984,11 Z M48.7705078,7.36230469 C48.7705078,8.53744077 48.4360385,9.43749688 47.7670898,10.0625 C47.0981412,10.6875031 46.1321678,11 44.8691406,11 L42.8476562,11 L42.8476562,3.86132812 L45.0888672,3.86132812 C46.2542376,3.86132812 47.1591765,4.16894224 47.8037109,4.78417969 C48.4482454,5.39941714 48.7705078,6.25878354 48.7705078,7.36230469 Z M47.1982422,7.40136719 C47.1982422,5.8681564 46.5211656,5.1015625 45.1669922,5.1015625 L44.3613281,5.1015625 L44.3613281,9.75 L45.0107422,9.75 C46.4690828,9.75 47.1982422,8.96713022 47.1982422,7.40136719 Z M52.8476562,3.86132812 L55.0693359,3.86132812 C56.0817108,3.86132812 56.8165667,4.00536965 57.2739258,4.29345703 C57.7312848,4.58154441 57.9599609,5.0397104 57.9599609,5.66796875 C57.9599609,6.09440317 57.8598643,6.44433457 57.659668,6.71777344 C57.4594717,6.9912123 57.193361,7.15559868 56.8613281,7.2109375 L56.8613281,7.25976562 C57.3138043,7.36067759 57.6401357,7.54947778 57.840332,7.82617188 C58.0405283,8.10286597 58.140625,8.47070083 58.140625,8.9296875 C58.140625,9.58073242 57.9054385,10.0885398 57.4350586,10.453125 C56.9646786,10.8177102 56.3258504,11 55.5185547,11 L52.8476562,11 L52.8476562,3.86132812 Z M54.3613281,6.68847656 L55.2402344,6.68847656 C55.6503927,6.68847656 55.9474275,6.62500063 56.1313477,6.49804688 C56.3152678,6.37109312 56.4072266,6.16113428 56.4072266,5.86816406 C56.4072266,5.5947252 56.3071299,5.39860085 56.1069336,5.27978516 C55.9067373,5.16096946 55.5901714,5.1015625 55.1572266,5.1015625 L54.3613281,5.1015625 L54.3613281,6.68847656 Z M54.3613281,7.88964844 L54.3613281,9.75 L55.3476562,9.75 C55.764325,9.75 56.0719391,9.67024819 56.2705078,9.51074219 C56.4690765,9.35123618 56.5683594,9.107098 56.5683594,8.77832031 C56.5683594,8.18586943 56.1451865,7.88964844 55.2988281,7.88964844 L54.3613281,7.88964844 Z M61.6904297,6.80078125 L63.1796875,3.86132812 L64.8105469,3.86132812 L62.4423828,8.22167969 L62.4423828,11 L60.9384766,11 L60.9384766,8.27050781 L58.5703125,3.86132812 L60.2109375,3.86132812 L61.6904297,6.80078125 Z M65.3818359,10.3017578 C65.3818359,10.0283189 65.4550774,9.82161528 65.6015625,9.68164062 C65.7480476,9.54166597 65.9612616,9.47167969 66.2412109,9.47167969 C66.5113946,9.47167969 66.7205396,9.54329355 66.8686523,9.68652344 C67.0167651,9.82975332 67.0908203,10.0348294 67.0908203,10.3017578 C67.0908203,10.5589206 67.0159513,10.7615552 66.8662109,10.909668 C66.7164706,11.0577807 66.5081394,11.1318359 66.2412109,11.1318359 C65.9677721,11.1318359 65.7561856,11.0594083 65.6064453,10.9145508 C65.456705,10.7696933 65.3818359,10.565431 65.3818359,10.3017578 Z M65.3818359,6.26855469 C65.3818359,5.99511582 65.4550774,5.78841216 65.6015625,5.6484375 C65.7480476,5.50846284 65.9612616,5.43847656 66.2412109,5.43847656 C66.5113946,5.43847656 66.7205396,5.51009043 66.8686523,5.65332031 C67.0167651,5.7965502 67.0908203,6.00162627 67.0908203,6.26855469 C67.0908203,6.53222788 67.0151375,6.73649016 66.8637695,6.88134766 C66.7124016,7.02620515 66.5048841,7.09863281 66.2412109,7.09863281 C65.9677721,7.09863281 65.7561856,7.02701895 65.6064453,6.88378906 C65.456705,6.74055918 65.3818359,6.53548311 65.3818359,6.26855469 Z" id="path-8"></path>
    </defs>
    <g id="Page-1" stroke="none" stroke-width="1" fill="none" fill-rule="evenodd">
        <g id="powered_by_graphcms.a67588e3">
            <rect id="Rectangle" fill="url(#radialGradient-1)" fill-rule="nonzero" x="0" y="0" width="170" height="56" rx="5"></rect>
            <g id="Group-3" transform="translate(120.000000, 6.000000)">
                <path d="M22.8610442,0.906838776 L37.0432667,9.03544697 C38.7597923,10.0192817 39.816404,11.8321303 39.816404,13.7933705 L39.816404,30.0868341 C39.816404,32.0480743 38.7597923,33.8609228 37.0432667,34.8447576 L22.8610442,42.9733658 C21.1347472,43.9628012 19.0045835,43.9628012 17.2782865,42.9733658 L3.09606397,34.8447576 C1.37953844,33.8609228 0.322926658,32.0480743 0.322926658,30.0868341 L0.322926658,13.7933705 C0.322926658,11.8321303 1.37953844,10.0192817 3.09606397,9.03544697 L17.2782865,0.906838776 C19.0045835,-0.0825965513 21.1347472,-0.0825965513 22.8610442,0.906838776 Z" id="Path" stroke="#FFFFFF" stroke-width="1.5"></path>
                <g id="color-copy-5" transform="translate(1.935484, 1.913043)" fill="url(#radialGradient-3)" fill-rule="nonzero">
                    <path d="M0.41005845,12.5981735 C0.41005845,10.8929971 1.32858435,9.31679856 2.8208699,8.46119967 L15.7109347,1.07070724 C17.2098838,0.211287857 19.05937,0.209767035 20.5597637,1.06672017 L25.2245028,3.73099597 C25.2979043,3.77291941 25.358874,3.83316813 25.4013064,3.90570878 C25.535065,4.13437673 25.4559513,4.42692427 25.224601,4.55913203 L8.41647044,14.1643299 C8.26690442,14.2498011 8.17479077,14.407608 8.17479077,14.5783698 L8.17479077,18.5427028 C8.17479077,18.6270252 8.15223547,18.7098488 8.10941119,18.7827778 C7.97526615,19.0112245 7.67915511,19.0889318 7.44802873,18.9563421 L4.44525135,17.2337458 C4.37146694,17.191418 4.28767181,17.1691242 4.20236027,17.1691242 C3.93512569,17.1691242 3.71848931,17.3832489 3.71848931,17.6473851 L3.71848931,27.8416632 C3.71848931,28.0127202 3.81091902,28.1707531 3.96089298,28.2561161 L7.93238705,30.5166319 C8.08236106,30.6019948 8.17479077,30.7600277 8.17479077,30.9310848 L8.17479077,33.7238067 C8.17479077,33.8081916 8.15220208,33.8910741 8.10931776,33.9640407 C7.97508387,34.1924364 7.67894265,34.2700313 7.44786784,34.1373537 L2.81824848,31.4791385 C1.32744155,30.6231533 0.41005845,29.0477751 0.41005845,27.3436688 L0.41005845,12.5981735 Z M10.3665499,35.5405217 L10.3665499,15.8377692 C10.3665499,15.6666748 10.4590197,15.5086133 10.6090454,15.4232641 L17.8820874,11.2856492 C18.0321553,11.2002759 18.2169389,11.2006676 18.3666349,11.2866763 L25.6420745,15.4668183 C25.7910875,15.5524345 25.8827734,15.7099347 25.8827734,15.8802963 L25.8827734,35.5422231 C25.8827734,35.7130719 25.7905666,35.8709456 25.6408803,35.956385 L23.3192743,37.2815335 C23.0878559,37.4136247 22.791917,37.3352793 22.6582763,37.106544 C22.6157921,37.0338292 22.5934255,36.9513404 22.5934255,36.8673716 L22.5934255,27.1616108 C22.5934255,26.8974746 22.376789,26.6833499 22.1095545,26.6833499 C22.0240453,26.6833499 21.9400633,26.7057471 21.8661597,26.7482608 L18.378174,28.7547585 C18.2274047,28.8414901 18.0410743,28.8412936 17.8904925,28.7542442 L14.4249042,26.7508326 C14.1942268,26.617481 13.897855,26.694211 13.7629392,26.9222138 C13.7195923,26.9954685 13.6967465,27.0788043 13.6967465,27.1636682 L13.6967465,36.8724458 C13.6967465,37.1365819 13.4801101,37.3507067 13.2128755,37.3507067 C13.128796,37.3507067 13.0461675,37.3290517 12.9731338,37.2878761 L10.6106791,35.955952 C10.459734,35.8708509 10.3665499,35.7122813 10.3665499,35.5405217 Z M35.851381,12.3413373 L35.851381,14.598601 C35.851381,14.7682292 35.7604763,14.9251661 35.6124767,15.0110428 L31.6544298,17.3076982 C31.5064302,17.393575 31.4155255,17.5505119 31.4155255,17.72014 L31.4155255,20.3785307 C31.4155255,20.642667 31.6321619,20.8567916 31.8993964,20.8567916 C31.9842273,20.8567916 32.0675675,20.8347482 32.1410606,20.7928715 L35.1258459,19.0921302 C35.3573642,18.9602101 35.6532437,19.0387746 35.7867111,19.2676086 C35.829079,19.3402497 35.851381,19.4226236 35.851381,19.5064709 L35.851381,27.3389246 C35.851381,29.0443572 34.9325814,30.6207522 33.4399417,31.4762583 L28.8383876,34.1136383 C28.6072086,34.2461384 28.3111285,34.1683163 28.177074,33.9398177 C28.134311,33.8669271 28.1117896,33.7841637 28.1117896,33.6999049 L28.1117896,31.0087896 C28.1117896,30.837956 28.2039801,30.680094 28.3536453,30.594649 L32.298866,28.3422939 C32.4485312,28.2568489 32.5407217,28.098987 32.5407217,27.9281534 L32.5407217,25.2264575 C32.5407217,24.9623213 32.3240853,24.7481967 32.0568507,24.7481967 C31.9716572,24.7481967 31.8879739,24.7704288 31.8142608,24.8126456 L28.8382504,26.5170577 C28.6070276,26.649483 28.3109732,26.571565 28.1769945,26.343023 C28.1342826,26.2701646 28.1117896,26.1874514 28.1117896,26.1032457 L28.1117896,14.6085473 C28.1117896,14.4380841 28.0199952,14.2805059 27.8708418,14.1949264 L21.0257844,10.2674446 C20.7946683,10.1348374 20.7160721,9.84215353 20.8502348,9.61371706 C20.892543,9.54167973 20.9531523,9.481813 21.0260627,9.44004327 L27.8692646,5.51963753 C28.0192708,5.43370042 28.2043314,5.4336612 28.3543748,5.51953476 L33.6353092,8.54194344 C35.0068874,9.32693137 35.851381,10.7747924 35.851381,12.3413373 Z" id="path-3"></path>
                </g>
                <g id="Group-Clipped" transform="translate(1.935484, 1.913043)">
                    <g id="Group">
                        <g id="Group-Clipped">
                            <mask id="mask-5" fill="white">
                                <use xlink:href="#path-4"></use>
                            </mask>
                            <g id="path-4"></g>
                            <g id="Group" mask="url(#mask-5)">
                                <g transform="translate(-1.000000, -1.000000)">
                                    <g transform="translate(0.516129, 0.521739)">
                                        <g fill-rule="nonzero">
                                            <g transform="translate(0.410058, 0.134143)">
                                                <polygon id="Polygon-2-Copy" fill="#E6E6E6" points="38.3326229 8.71569079 38.3326229 32.2385636 17.7679786 44 17.724123 20.4207041"></polygon>
                                                <polygon id="Polygon-2-Copy-2" fill="#D2D2D2" points="18.2458427 20.2860297 18.2458427 40.6018936 0.497936173 30.4514202 0.497936173 10.1504734"></polygon>
                                                <polygon id="Polygon-2" fill="#FFFFFF" points="18.2458427 0 36.2247853 10.2826087 18.2075013 20.5652174 0.266900155 10.2826087"></polygon>
                                            </g>
                                        </g>
                                    </g>
                                </g>
                            </g>
                        </g>
                    </g>
                </g>
                <g id="color-copy-3-Clipped" transform="translate(1.935484, 1.913043)">
                    <g id="Group">
                        <g id="color-copy-3-Clipped">
                            <mask id="mask-7" fill="white">
                                <use xlink:href="#path-6"></use>
                            </mask>
                            <g id="path-6"></g>
                            <path d="M0.41005845,12.5981735 C0.41005845,10.8929971 1.32858435,9.31679856 2.8208699,8.46119967 L15.7109347,1.07070724 C17.2098838,0.211287857 19.05937,0.209767035 20.5597637,1.06672017 L25.2245028,3.73099597 C25.2979043,3.77291941 25.358874,3.83316813 25.4013064,3.90570878 C25.535065,4.13437673 25.4559513,4.42692427 25.224601,4.55913203 L8.41647044,14.1643299 C8.26690442,14.2498011 8.17479077,14.407608 8.17479077,14.5783698 L8.17479077,18.5427028 C8.17479077,18.6270252 8.15223547,18.7098488 8.10941119,18.7827778 C7.97526615,19.0112245 7.67915511,19.0889318 7.44802873,18.9563421 L4.44525135,17.2337458 C4.37146694,17.191418 4.28767181,17.1691242 4.20236027,17.1691242 C3.93512569,17.1691242 3.71848931,17.3832489 3.71848931,17.6473851 L3.71848931,27.8416632 C3.71848931,28.0127202 3.81091902,28.1707531 3.96089298,28.2561161 L7.93238705,30.5166319 C8.08236106,30.6019948 8.17479077,30.7600277 8.17479077,30.9310848 L8.17479077,33.7238067 C8.17479077,33.8081916 8.15220208,33.8910741 8.10931776,33.9640407 C7.97508387,34.1924364 7.67894265,34.2700313 7.44786784,34.1373537 L2.81824848,31.4791385 C1.32744155,30.6231533 0.41005845,29.0477751 0.41005845,27.3436688 L0.41005845,12.5981735 Z M10.3665499,35.5405217 L10.3665499,15.8377692 C10.3665499,15.6666748 10.4590197,15.5086133 10.6090454,15.4232641 L17.8820874,11.2856492 C18.0321553,11.2002759 18.2169389,11.2006676 18.3666349,11.2866763 L25.6420745,15.4668183 C25.7910875,15.5524345 25.8827734,15.7099347 25.8827734,15.8802963 L25.8827734,35.5422231 C25.8827734,35.7130719 25.7905666,35.8709456 25.6408803,35.956385 L23.3192743,37.2815335 C23.0878559,37.4136247 22.791917,37.3352793 22.6582763,37.106544 C22.6157921,37.0338292 22.5934255,36.9513404 22.5934255,36.8673716 L22.5934255,27.1616108 C22.5934255,26.8974746 22.376789,26.6833499 22.1095545,26.6833499 C22.0240453,26.6833499 21.9400633,26.7057471 21.8661597,26.7482608 L18.378174,28.7547585 C18.2274047,28.8414901 18.0410743,28.8412936 17.8904925,28.7542442 L14.4249042,26.7508326 C14.1942268,26.617481 13.897855,26.694211 13.7629392,26.9222138 C13.7195923,26.9954685 13.6967465,27.0788043 13.6967465,27.1636682 L13.6967465,36.8724458 C13.6967465,37.1365819 13.4801101,37.3507067 13.2128755,37.3507067 C13.128796,37.3507067 13.0461675,37.3290517 12.9731338,37.2878761 L10.6106791,35.955952 C10.459734,35.8708509 10.3665499,35.7122813 10.3665499,35.5405217 Z M35.851381,12.3413373 L35.851381,14.598601 C35.851381,14.7682292 35.7604763,14.9251661 35.6124767,15.0110428 L31.6544298,17.3076982 C31.5064302,17.393575 31.4155255,17.5505119 31.4155255,17.72014 L31.4155255,20.3785307 C31.4155255,20.642667 31.6321619,20.8567916 31.8993964,20.8567916 C31.9842273,20.8567916 32.0675675,20.8347482 32.1410606,20.7928715 L35.1258459,19.0921302 C35.3573642,18.9602101 35.6532437,19.0387746 35.7867111,19.2676086 C35.829079,19.3402497 35.851381,19.4226236 35.851381,19.5064709 L35.851381,27.3389246 C35.851381,29.0443572 34.9325814,30.6207522 33.4399417,31.4762583 L28.8383876,34.1136383 C28.6072086,34.2461384 28.3111285,34.1683163 28.177074,33.9398177 C28.134311,33.8669271 28.1117896,33.7841637 28.1117896,33.6999049 L28.1117896,31.0087896 C28.1117896,30.837956 28.2039801,30.680094 28.3536453,30.594649 L32.298866,28.3422939 C32.4485312,28.2568489 32.5407217,28.098987 32.5407217,27.9281534 L32.5407217,25.2264575 C32.5407217,24.9623213 32.3240853,24.7481967 32.0568507,24.7481967 C31.9716572,24.7481967 31.8879739,24.7704288 31.8142608,24.8126456 L28.8382504,26.5170577 C28.6070276,26.649483 28.3109732,26.571565 28.1769945,26.343023 C28.1342826,26.2701646 28.1117896,26.1874514 28.1117896,26.1032457 L28.1117896,14.6085473 C28.1117896,14.4380841 28.0199952,14.2805059 27.8708418,14.1949264 L21.0257844,10.2674446 C20.7946683,10.1348374 20.7160721,9.84215353 20.8502348,9.61371706 C20.892543,9.54167973 20.9531523,9.481813 21.0260627,9.44004327 L27.8692646,5.51963753 C28.0192708,5.43370042 28.2043314,5.4336612 28.3543748,5.51953476 L33.6353092,8.54194344 C35.0068874,9.32693137 35.851381,10.7747924 35.851381,12.3413373 Z" id="color-copy-3" style="mix-blend-mode: multiply;" mask="url(#mask-7)"></path>
                        </g>
                    </g>
                </g>
            </g>
            <g id="Group-2" transform="translate(9.000000, 11.000000)">
                <path d="M0.987170296,32.1407905 C0.329053475,31.545469 0,30.6525001 0,29.461857 L0,21.8978096 C0,20.7071666 0.329053475,19.8141977 0.987170296,19.2188762 C1.64528712,18.6235546 2.58998903,18.3258983 3.82130437,18.3258983 L6.68728265,18.3258983 L6.68728265,19.9227528 L3.60900968,19.9227528 C3.08534684,19.9227528 2.66076171,20.0768337 2.33524156,20.3850001 C2.00972141,20.6931666 1.84696378,21.0643615 1.84696378,21.498596 L1.84696378,29.8610707 C1.84696378,30.2953052 2.00972141,30.6665001 2.33524156,30.9746665 C2.66076171,31.282833 3.08534684,31.4369139 3.60900968,31.4369139 L5.5621208,31.4369139 L5.5621208,26.8774742 L3.77884543,26.8774742 L3.77884543,25.301631 L7.32416671,25.301631 L7.32416671,33.0337683 L3.82130437,33.0337683 C2.58998903,33.0337683 1.64528712,32.736112 0.987170296,32.1407905 Z M16.1812475,26.9405079 L14.2918248,26.9405079 L14.2918248,33.0337683 L12.444861,33.0337683 L12.444861,18.3258983 L16.2449359,18.3258983 C17.4479451,18.3258983 18.3572649,18.5885362 18.9729226,19.1138199 C19.5885803,19.6391036 19.8964045,20.4690394 19.8964045,21.6036522 L19.8964045,23.6207315 C19.8964045,25.2035864 19.2595268,26.1911049 17.9857523,26.5833168 L20.9366485,33.0337683 L18.9198489,33.0337683 L16.1812475,26.9405079 Z M17.677925,20.2589327 C17.4302466,20.0208041 17.0375054,19.9017415 16.4996895,19.9017415 L14.2918248,19.9017415 L14.2918248,25.3646647 L16.4996895,25.3646647 C17.0375054,25.3646647 17.4302466,25.2421003 17.677925,24.9969679 C17.9256034,24.7518355 18.0494407,24.3631314 18.0494407,23.830844 L18.0494407,21.414551 C18.0494407,20.8822636 17.9256034,20.4970613 17.677925,20.2589327 Z M31.7043814,33.0337683 L30.8976616,29.3147783 L26.7579152,29.3147783 L25.9299659,33.0337683 L24.0405432,33.0337683 L27.6283234,18.3258983 L30.0697123,18.3258983 L33.5938041,33.0337683 L31.7043814,33.0337683 Z M28.8171737,19.7126404 L27.0975867,27.7389351 L30.5579901,27.7389351 L28.8171737,19.7126404 Z M44.2978487,26.5097774 C43.6892675,27.0490687 42.7905623,27.3187103 41.6017061,27.3187103 L39.6061361,27.3187103 L39.6061361,33.0337683 L37.7591723,33.0337683 L37.7591723,18.3258983 L41.5592472,18.3258983 C42.7622564,18.3258983 43.6715763,18.5885362 44.2872339,19.1138199 C44.9028916,19.6391036 45.2107158,20.4690394 45.2107158,21.6036522 L45.2107158,23.9989339 C45.2107158,25.1335467 44.9064298,25.9704862 44.2978487,26.5097774 Z M42.9922363,20.2589327 C42.744558,20.0208041 42.3518167,19.9017415 41.8140008,19.9017415 L39.6061361,19.9017415 L39.6061361,25.7428671 L41.8140008,25.7428671 C42.3518167,25.7428671 42.744558,25.6203027 42.9922363,25.3751703 C43.2399147,25.1300379 43.363752,24.7413338 43.363752,24.2090463 L43.363752,21.414551 C43.363752,20.8822636 43.2399147,20.4970613 42.9922363,20.2589327 Z M56.2332024,33.0337683 L56.2332024,26.2681481 L51.8599318,26.2681481 L51.8599318,33.0337683 L50.0129681,33.0337683 L50.0129681,18.3258983 L51.8599318,18.3258983 L51.8599318,24.7133162 L56.2332024,24.7133162 L56.2332024,18.3258983 L58.0801662,18.3258983 L58.0801662,33.0337683 L56.2332024,33.0337683 Z M70.2250957,33.3392481 C70.1118713,33.3684635 67.8261666,33.3652841 67.65633,33.3652841 C66.8496061,33.3652841 66.1490407,33.385429 65.5546126,33.1663134 C64.9601845,32.9471978 64.4683734,32.5418401 64.0791645,31.9502281 C63.6899556,31.3586161 63.4033607,30.540597 63.219371,29.4961461 C63.0353814,28.4516953 63.0495342,22.4333616 63.2618299,21.4327338 C63.4741257,20.4321061 63.7925645,19.668865 64.217156,19.1429877 C64.6417475,18.6171103 65.1654025,18.3134163 65.7881367,18.1454277 C66.4108709,17.9774391 68.2578304,17.990869 68.4842792,18.0127805 C69.4564496,18.0106607 70.0367217,18.0154911 70.2250957,18.0272716 L70.2250957,20.5488556 C69.8801858,20.5488556 68.0384623,20.5660533 67.65633,20.5660533 C67.3449629,20.5660533 67.053046,20.6626877 66.8602249,20.7736228 C66.6674038,20.8845579 66.4604039,21.0267811 66.3188734,21.377366 C66.1773429,21.7279509 66.0711967,22.1959792 66.0004314,22.8679336 C65.9296662,23.539888 65.9261279,27.6373216 65.9898167,28.3238837 C66.0535054,29.0104458 66.1525753,29.5003853 66.2870292,29.8801856 C66.4214832,30.259986 66.6019319,30.5119651 66.8283807,30.6361306 C67.0548295,30.760296 67.3499399,30.8223778 67.65633,30.8223778 C68.0950745,30.8223778 69.9627041,30.8395756 70.2250957,30.8395756 L70.2250957,33.3392481 Z M82.9247103,33.341605 L82.9247103,21.0635601 L81.098976,27.7600783 L78.8911112,27.7600783 L76.980459,21.0635601 L76.980459,33.341605 L74.3904639,33.341605 L74.3904639,18.0035925 L78.8061933,18.0035925 L80.058732,23.8977716 L81.3325001,18.0035925 L85.5571644,18.0035925 L85.5571644,33.341605 L82.9247103,33.341605 Z M97.4500592,28.7840241 C97.4500592,29.8065634 97.3262219,30.6282344 97.0785435,31.2490618 C96.8308651,31.8698893 96.491197,32.3482844 96.059529,32.6842616 C95.627861,33.0202388 95.1112824,33.1961174 94.5097778,33.2983713 C93.9082732,33.4006252 93.2537044,33.3652841 92.5460519,33.3652841 C92.3196031,33.3652841 89.7991173,33.3575557 89.5314674,33.3392481 L89.5314674,30.9047207 C89.7331473,30.9047207 92.1214615,30.9094344 92.3337572,30.9094344 C92.9989506,30.9094344 93.5261438,30.7670114 93.9153526,30.4821612 C94.3045615,30.197311 94.499163,29.7043084 94.499163,29.0031386 C94.499163,28.6087306 94.4602427,28.2727584 94.382401,27.995212 C94.3045592,27.7176657 94.1877983,27.4912496 94.0321147,27.3159572 C93.8764312,27.1406648 93.6853679,27.0018936 93.4589191,26.8996397 C93.2324703,26.7973858 92.9777192,26.7170446 92.6946582,26.6586138 C91.505802,26.4102828 90.66017,25.9355396 90.1577367,25.2343698 C89.6553034,24.5332 89.4040905,23.539891 89.4040905,22.2544131 C89.4040905,21.4363817 89.513775,20.7498299 89.7331473,20.1947371 C89.9525196,19.6396444 90.2780348,19.1868123 90.7097029,18.8362274 C91.1413709,18.4856425 91.6721023,18.3201308 92.301913,18.1667499 C92.9317237,18.013369 93.650008,18.0103785 94.4567041,18.0231471 C94.7172847,18.0272716 96.9324864,18.0035925 97.0891582,18.0059493 L97.0891582,20.4203415 C96.8776243,20.4203415 94.4283991,20.435763 94.2444094,20.435763 C93.6358283,20.435763 93.1687846,20.5599266 92.8432645,20.8082576 C92.5177443,21.0565886 92.3549867,21.4582944 92.3549867,22.0133872 C92.3549867,22.3639721 92.3797542,22.6524699 92.4292898,22.8788893 C92.4788255,23.1053087 92.5672807,23.2879023 92.6946582,23.4266755 C92.8220356,23.5654486 92.9918697,23.6786567 93.2041654,23.7663029 C93.4164612,23.8539491 93.6924415,23.9342903 94.0321147,24.0073288 C94.5416245,24.1095827 95.00513,24.2666132 95.4226449,24.4784249 C95.8401599,24.6902366 96.2010573,24.9787344 96.5053478,25.343927 C96.8096384,25.7091196 97.0431602,26.1692554 97.2059203,26.7243481 C97.3686804,27.2794409 97.4500592,27.9659927 97.4500592,28.7840241 Z" id="Combined-Shape" fill="#FFFFFF" fill-rule="nonzero"></path>
                <g id="POWERED-BY:">
                    <g>
                        <use fill="#000000" xlink:href="#path-8"></use>
                        <use fill="#FFFFFF" xlink:href="#path-8"></use>
                    </g>
                </g>
            </g>
        </g>
    </g>
</svg>